<svg xmlns="http://www.w3.org/2000/svg" width="120mm" height="80mm" viewBox="0 0 120 80" version="1.1" id="svg919"><g id="layer1" transform="translate(-48.75 -37.64)"><g transform="translate(-15.58 -7.45)" id="g899"><text id="text839-35" y="119.49" x="71.36" style="font-style:normal;font-weight:400;font-size:18.23224068px;line-height:1.25;font-family:sans-serif;letter-spacing:0;word-spacing:0;fill:#000;fill-opacity:1;stroke:none;stroke-width:.35984683" xml:space="preserve"><tspan style="font-style:normal;font-variant:normal;font-weight:400;font-stretch:normal;font-family:'Spectral SC';-inkscape-font-specification:'Spectral SC';fill:#000;stroke-width:.35984683" y="119.49" x="71.36" id="tspan837-62">Poliorama</tspan></text><path id="path965" d="M134 50.51l-6.6 3-10.01 1.58-7-1.28-6 2.83-8.94 12.38-.94 10.88.46 6.54L93.12 91l-1 4.84-1.82 3.11.15 2.34 3.43 1.87 3.28-1.33-.51-2.61 1.9-4.9 2.08-5.34 1.94-1.23.45 4.07-.82 10.57 4.96 1.38 4.73-.36-.1-3.61-2.83-4 .42-7.9 3.08-3.9 2.42-.29 8.17-2.96 1 1.72-1.58 16.86-1.64 2.66.48 1.93 7.44.85 2.6-1.66-1.2-3.25-2.22-.9 5.1-14.12 3.93 4.18 4.22 9-.5 4.89 4.08 1.15 5-.72.05-3.09-3.12-3.5v-3.54l-3.08-8.2-2.71-11.84 3.04 1.75 2.7-1.63-.61-3.5 3.45 1.2 1.96 2.2 1.45-.76 1.82.73 1.25 5.3-1.67 4.53-1.3-.01-.68-.73.76-1.87-2.7-.57-1.57 2.69 2.41 4.81 4.93-.17 4.92-6.16.9-5.7 1.64.3 2.64-1.63-2.04-.46 1.67-.97-3.87-.98-.89-3.66h.02l-.03-.06-.04-.16-6.49-11.44-5.07-3.85-12.63-.33zm.1.95l1.77.94-3.35 1.96zm-.33.03l-1.69 3.13-.09.05-3.93-.59zm3.58 1.35l2.8.08 1.94.1 3.81.2 2.38.12-.3.24-2.13-.12-4.65-.24-2.53-.13-1.12-.06zm-.73.04l5.5 5.15-6.16 1.88-1.55-5.74zm11.85.25h.07l-.08.07zm.93.16l4.45 3.37-1.56 4.63-.24-.03-1.27-.46zm-11.55.02l4.15.22 3.8.2 1.86.1-.3.23-1.6-.09-4.43-.23-2.53-.13-.66-.03zm11.29.03l1.29 7.9-5.69 1.65-.08.03.03.1-.26-.15-1.54-4.65zm-10.7.52l3 .15 4.27.23 1.33.07-.3.23-1.07-.05-4.12-.22-2.53-.13-.3-.02zm-10.96.44l-.58 3.33-8.8-1.85zm.27 0l3.88.58-4.44 2.6zm6.43.01l1.56 5.79-7.71-2.2zm4.84.1h.11l2.53.13 3.96.2.8.05-.3.24-.55-.03-3.8-.2-2.47-.13zm-28.52.23h.06l3.47 5.37-8.56-3zm.42.07l6.08 1.11-2.73 4.07zm28.68.24l2.29.12 3.63.19.29.01-.3.24h-.03l-3.48-.19-2.11-.1zm.59.55l1.43.07.49.03 3.08.16-.3.23-2.5-.13-1.92-.1zm-22.9.38l9.55 2.01.75 6.87-13.18-4.62zm23.48.16l.76.04 1.15.06 1.89.1-.3.24-1.3-.07-1.49-.08-.43-.02zm.58.55h.08l1.83.1.7.03-.3.24-2.02-.1zm12.7.3l5.7 10.07-7-5.4.06-.02-.16-.06-.12-.09zm-12.11.25l1.4.07-.3.23-.82-.04zm-36.77.04l1.03.36-.21.67zm-.26.1l9.23 11.65-17.58-.1 8.34-11.56zm1.54.35l1.27.45-.54 1.64-1-1.26zm36.07.05l.2.01-.1.08zm-14.8.4l15.3 4.36-11.46.76-3.87-4.8-.03-.29zm14.52.07l.1.09 1.36 4.12-7.7-2.19 6.28-1.9zm-34.27.01l1.27.45-.86 2.62-1-1.26zm1.52.53l1.27.45-1.18 3.6-1-1.26zm18.26.19l8.67 10.8-8-4.62zm-16.74.35l1.27.44-1.5 4.59-1-1.27zm1.52.53l1.27.45-1.82 5.56-1-1.26zm1.52.53l1.27.45-2.15 6.54-1-1.26zm1.52.54l1.27.44-2.47 7.53-1-1.27zm35.31.3l.04.01h-.04zm-33.8.23l1.28.44-2.18 6.65-1.56.42zm33.78.04l1.14.12.07.03-.61.24-.37-.26-.27.04.03-.17zm-.4.21l-.09 4.7-5.5-3.18zm2.01.06l7.62 5.88.15.28-9.61-1.04.08-4.94.31-.04.4.28zm-33.86.22l1.26.45-1.84 5.62-1.55.41zm1.51.53l1.27.45-1.5 4.59-1.55.41zm23.55.25l-6.4 7.5-.22-.14-5.29-6.57zm.2.18l.1.32.19.57 1.6 9.15-1.83 1.1-3.27-1.88-.05-.2-.14.1-2.86-1.65zm-22.23.1l1.27.45-1.16 3.56-1.55.41zm1.52.54l1.27.44-.83 2.53-1.55.41zm1.52.53l1.27.45-.49 1.49-1.55.41zm20.41.15l.25.15-.24.13-.05-.26zm.52.3l.25.15-.67.37-.05-.26zm-19.4.08l1.26.45-.15.46-1.55.42zm19.92.22l.25.15-1.1.6-.04-.26zm.52.3l.25.15-1.52.84-.05-.26zm-19 .24v.06h-.03zm19.52.06l.25.15-1.95 1.08-.04-.26zm-19.4.24l.2.11L124.7 82l-1.3-2.23-.06.03-8.7-10.66zm19.92.06l.26.15-.1.05-2.28 1.26-.05-.26zm-19.47.2l11.53 6.64-.25.18-11.36-6.46zm20 .1l.24.15-1.7.94-1.1.61-.05-.26zm.51.3l.26.15-3.24 1.79-.04-.26zm-20.64.24l11.17 6.34-.47.33-10.8-6.14zm21.16.07l.26.14-3.66 2.02-.05-.26zm.52.3l.05.03v.23l-3.79 2.09-.04-.01-.02.04-.03.02-.04-.26zm.85.18l9.58 1.03-2.96 1.67-3.9.84.01.03-2.7-1.33zm-22.7.25l10.63 6.04-.47.33-10.26-5.84zm21.9.13l.01.28-3.15 1.74-.31-.11zm.02.58v.28l-2.5 1.39-.32-.12zm-22.08.1l10.08 5.72-.47.33-9.71-5.52zm32.63.17l.88 3.6-1.23-.29-.04-.03h-.01l-2.42-1.7zm-10.54.31v.29L148 69.9l-.32-.1zm-22.25.32l9.53 5.42-.46.33-9.18-5.22zm-31.23.18l17.82.1-8.56 14.78-.2.02-.08.1-3.12-5.07V79h-.01l-5.99-9.71zm53.49.08v.29l-1.21.67-.32-.11zm-35.43.12l8.65 10.6-.95.34.02-.01-7.93-10.56zm13 .42l9 5.11-.47.33-8.63-4.9zm-31.24 0l.48.8-.61 9.01-.73.08zm53.68.05v.03l.24.12-.76.42-.05.03-.32-.11zm-35.8.15l7.82 10.4-.76.28-7.48-9.94zm43.23.1l2.6 1.82.02.01.01.01 1.41.32v.01l2.45.62-1.4.81-5.3-.82-3.42-2zm-6.9.04l.27.14-.8.44-.08-.1-.16-.06zm.56.28l.28.14-1.01.55-.17-.19zm-23.68.19l8.44 4.8-.47.32-8.08-4.59zm24.25.09l.27.13-1.22.68-.17-.2zm.56.28l.27.13-1.43.8-.17-.2 1.24-.69zm-55.18 0l.7 1.15-.5 7.37-.78.08zm16.6 0l7.36 9.8-.77.28-7.02-9.34zm39.14.27l.28.14-1.65.9-.17-.18 1.08-.6zm-25.53.16l7.9 4.5-.47.32-7.54-4.28zm26.09.12l.25.15-.5.28-.1-.04-1.3.7-.1-.12.9-.5zm.52.3l.25.15-.41.23-.3-.12zm-40.8.14l6.91 9.18-.77.28-6.56-8.73zm41.31.17l.26.15-.31.17-.3-.12zm-27.29.08l7.34 4.17.2-.13-.3.21-1.91 1.16-5.76-3.27.1-.53 6.16 3.5.26-.17-6.36-3.6.11-.54 6.75 3.84.25-.16-6.94-3.95zm27.81.22l.26.15-.22.12-.3-.12zm-56.9.07l.7 1.15-.39 5.74-.79.08zm57.42.23l.25.15-.31.18-.05-.22-.05-.02zm-42.92.21l6.45 8.57-.77.28-6.1-8.11zm43.44.1l.25.15-.71.39-.06-.26zm-15.7.26l1.41 6.17-6.6-2.51v-.02zm16.22.04l.25.15-1.1.6-.07-.25zm.45.34l-.03.3-1.16.64-.05-.25zm.45.02l5.33.82.98-.57 1.33.3-1.37.85-1.96-.37-.95 5.95zm-.2.18l3.34 6.94-5.45 2.07 1.56-4.22h.04zm-45.23.05l6 7.96-.78.28-5.64-7.51zm-13 .1l.71 1.15-.27 4.1-.8.08zm57.91.28l-.03.3-.96.53-.06-.25zm-30.23.31l5.55 3.16-.51.3-5.15-2.93zm-15.25.29l5.53 7.35-.76.28-5.2-6.9zm45.42.02l-.04.3-.77.43-.06-.25zm-30.33.5l4.94 2.8-.5.31-4.55-2.58zm30.26.13l-.03.3-.59.32-.06-.25zm-56.83.01l.7 1.14-.16 2.46-.79.08zm10.91.32l5.08 6.75-.77.27-4.73-6.28zm45.85.3l-.03.3-.26.13-.13.08-.06-.25zm-30.36.04l4.34 2.47-.5.3-3.94-2.24zm30.3.58l-.04.3-.2.11-.06-.25zm-22.32.01l-1.5 6.89-1.42 3.91-.91-8.5zm-24.04.06l4.62 6.13-.9.1-4.14-5.5zm15.9.16l3.74 2.12-.51.3-3.34-1.9zm-25.3.06l.71 1.15-.05.81-.8.08zm34.16.12l6.74 2.56.02.05-8.27 4.24.05-.14zm21.53.21l-.03.3-.02.01-.06-.25zm-30.55.41l3.13 1.78-.5.3-2.74-1.55zm-16.3.02l3.97 5.29-.9.1-3.5-4.66zm-7.89.77l.23.38-.26.02zm24.03.02l2.52 1.43-.5.3-2.13-1.2zm-16.71.2l3.34 4.44-.9.1-2.87-3.81zm-7.03.42l-1.93 9.24-.11.28-4.15-2.74-.43-6.07v-.03zm28.12 0l.95 8.8-6.08-5.71zm-4.55.18l1.93 1.1-.51.3-1.52-.87zm-23.34.02l3.03 4.93-1.15 1.55-3.73 2.37zm6.23.36l2.7 3.6-.9.1-2.23-2.97zm33.28.27l1.14 4.99-9.03-.95zm-16.33.16l1.32.74-.5.3-.92-.51zm25.35.22l1.66.36-.64 1.6 1.06 1.13 1.5.02-2.74 3.16zm-.22.3l.7 5.33-1.76-3.52zm-42.65.03l2.07 2.75-.9.1-1.6-2.12zm17.36.25l.71.4-.5.3-.32-.17zm34.84.46l-.32.4-.3-.17zm-52.77.27l1.43 1.91-.9.1-.96-1.27zm17.77.07l.1.07-.13.08zm34.06.02l.45.25-.32.4-.75-.42zm-.94.35l.9.52-.33.4-1.2-.68zm-.95.36l1.35.77-.32.41-1.65-.94zm-50.51.19l.8 1.06-.9.1-.33-.43zm18.34.04l.21.2-.1.37-.57 2.28.16-1.65.18-.73zm31.23.13l1.8 1.03-.32.4-2.1-1.19zm-30.8.27l.21.2-.04.16-1.08 4.3-.21.83h-.05l.12-1.31.06-.22.93-3.7zm29.85.1l2.26 1.28-.33.4-2.55-1.45zm-29.42.3l.21.2-1 3.94-.22.92-.26.02.22-.88 1.04-4.15zm28.6.13l2.59 1.46-.33.41-2.6-1.48zm-48.37 0l.16.23-.3.03zm20.2.28l.21.2-.86 3.43-.25.99-.27.01.25-.96zm-14.95.16l-.12.16-.02-.14zm-.4.05l.04.42-.72.9-.1-1.23zm43 .1l2.61 1.49-.32.4-2.63-1.49zm-44.05.02l.13 1.5-.71.91-.2-2.32zm23.72.03l9.25.97.03.07-5.23 3.33-.05-.12zm-6.89.04l.21.2-.73 2.9-.27 1.09-.27.01.27-1.04zm-17.87.05l.22 2.6-.48.6-.02.28-.2.15-.3-3.54zm-1.05.12l.31 3.7-.74.54-.35-4.15zm-1.04.12l.36 4.31-.74.55-.4-4.77zm20.4.11l.2.2-.56 2.22-.33 1.34-.27.01.17-.65.12-.48zm26.26.12l2.64 1.5-.2.24-.4.01-2.38-1.36zm-47.7.04l.4 4.77-.74.55-.37-4.36zm21.86.25l.21.2-.34 1.35-.36 1.44-.09.33-.26.01.11-.43.28-1.13zm25.32.3l2.06 1.18-.98.03-1.43-.8zm-24.89.1l.2.2-.47 1.88-.2.8-.26.02.05-.21.45-1.78zm14.97.04l2.91 7.74v1.33l-3.07-8.96zm-.4.25l3.31 9.64v.8l-.8-.73-3.18-9.27zm-14.14.11l.2.2-.36 1.46-.2.8-.26.01.55-2.2zm23.94.1l1.1.63-.98.04-.47-.27zm-47.6.13l.35 4.22-.74.55-.35-4.16.53-.34zm-8.97.15l3.96 2.62-1.7 4.34zm33.06.03l.2.2-.23.94-.22.87-.26.02.1-.4.26-1.06zm12.81.06l3 8.77-1.2-1.08-2.48-7.26zm10.18.24l.14.08h-.22zm-22.56.1l.2.2-.1.43-.24.95-.27.02.24-.92zm-33.63.02l2.23 6.8-3.78-2.98zm8.11.17l.36 4.18-.37.28-.46-4.16zm37 .05l2.3 6.75-1.19-1.07-1.8-5.25zm-11.05.16l.2.2-.23.95-.27.02.26-1.01zm.43.4l.2.2-.13.52-.26.02.16-.62zm9.7.02l1.63 4.73-1.2-1.07-1.1-3.23zm-9.27.39l.2.2-.02.08-.26.02zm8.37.19l.93 2.72-1.2-1.08-.41-1.21zm-30.4.05l-.38 7.16-4.38-3.47v-.19zm22.15.31l-.01.04h.12l-3.67 10.17-2.92-9.81v-.03l4.9-.28h.23v-.01l.27-.02v.01h.27v-.03l.27-.01v.03l.27-.01v-.04zm7.34.21l.24.71-.46-.41-.05-.12zm.07.92l7.77 6.98v.41l.1.1-4.46 5.09.45-4.37zm-14 .52l2.66 9.16-.43.34-2.37-8.1zm-30.1.68l3.83 3.03-.06.14-.15.38-5.44 2.84.67-1.13 1-4.9zm9.75 1.37l4.4 3.47-.02.33.08.11-5.17 5.3zm20.14.06l2.21 7.56-.44.34-1.9-6.51zm-.2 2.1l1.75 5.97-.44.34-1.43-4.92zm-26.21.4l-.14.35-5.34 2.78-.15-.1.08-.14zm-.28.72l-.14.35-4.6 2.4-.22-.16zm-.28.73l-.14.35-3.86 2.01-.22-.16zm11.45.12l2.6 3.7.07 2.25-4.37-4.2zm15.13.14l1.27 4.37-.43.34-.97-3.32zm-26.86.46l-.14.36-3.11 1.62-.23-.16zm49.5.4l.14.15-4.22 4.96-.32-.09zm-49.78.33l-.14.36-2.37 1.23-.23-.16zm50.1.02l.16.18-4.02 4.74-.26-.08zm-54.74.33l4.47 3.3-2.3.93-2.7-1.47-.11-1.66zm55.08.05l.17.2-3.82 4.49-.27-.07zm-40.32.2l4.55 4.38-3.83.3-4.15-1.16zm-10.4.13l-.14.35-1.63.85-.23-.16zm51.07.06l.16.2-3.62 4.25-.26-.07zm-23.85.13l.81 2.77-.44.34-.57-1.97.11-.17zm24.2.26l.16.19-3.42 4.03-.27-.08zm-51.7.27l.05.26-1.08.57-.23-.17zm52.04.12l.17.19-3.23 3.8-.26-.08zm-20.8.2l1.28 4.46-6.16-.7zm.32.12l2.13.88.87 2.32-1.77 1.13zm20.82.07l.17.19-2.8 3.3-.37.05zm-52.28.02l.05.26-.72.38-.23-.17zm52.63.36l.17.2-2.38 2.79-.37.05zm-25.62.03l.54 1.83-.44.34-.46-1.58zm-26.9.14l.04.26-.36.19-.23-.17zm52.87.22l.1.12v.15l-1.89 2.22-.37.05zm-52.77.3l.05.26h-.01l-.23-.16zm26.25.23l.42 1.45-.43.34-.35-1.2zm26.61.16v.39l-1.1 1.3-.38.05zm-27.16.73l.31 1.07-.23.18-.24-.98zm27.15.08l-.02.72-.68.1z" style="color:#000;font-style:normal;font-variant:normal;font-weight:400;font-stretch:normal;font-size:medium;line-height:normal;font-family:sans-serif;font-variant-ligatures:normal;font-variant-position:normal;font-variant-caps:normal;font-variant-numeric:normal;font-variant-alternates:normal;font-feature-settings:normal;text-indent:0;text-align:start;text-decoration:none;text-decoration-line:none;text-decoration-style:solid;text-decoration-color:#000;letter-spacing:normal;word-spacing:normal;text-transform:none;writing-mode:lr-tb;direction:ltr;text-orientation:mixed;dominant-baseline:auto;baseline-shift:baseline;text-anchor:start;white-space:normal;shape-padding:0;clip-rule:nonzero;display:inline;overflow:visible;visibility:visible;opacity:1;isolation:auto;mix-blend-mode:normal;color-interpolation:sRGB;color-interpolation-filters:linearRGB;solid-color:#000;solid-opacity:1;vector-effect:none;fill:#000;fill-opacity:1;fill-rule:nonzero;stroke:none;stroke-width:.79244035;stroke-linecap:butt;stroke-linejoin:miter;stroke-miterlimit:4;stroke-dasharray:none;stroke-dashoffset:0;stroke-opacity:1;color-rendering:auto;image-rendering:auto;shape-rendering:auto;text-rendering:auto;enable-background:accumulate"/></g></g></svg>
