<?xml version="1.0" encoding="UTF-8"?>
<!-- Created with Inkscape (http://www.inkscape.org/) -->
<svg width="103.58mm" height="66.134mm" version="1.1" viewBox="0 0 103.58 66.134" xmlns="http://www.w3.org/2000/svg" xmlns:cc="http://creativecommons.org/ns#" xmlns:dc="http://purl.org/dc/elements/1.1/" xmlns:rdf="http://www.w3.org/1999/02/22-rdf-syntax-ns#">
 <metadata>
  <rdf:RDF>
   <cc:Work rdf:about="">
    <dc:format>image/svg+xml</dc:format>
    <dc:type rdf:resource="http://purl.org/dc/dcmitype/StillImage"/>
    <dc:title/>
   </cc:Work>
  </rdf:RDF>
 </metadata>
 <g transform="translate(-53.287 -111.23)">
  <g id="title" aria-label="Poliorama">
   <g stroke-width=".35985">
    <path d="m53.287 177.18v-0.29171l1.4586-0.72929v-9.9913l-1.4586-0.72929v-0.29172h4.7404q2.1514 0 3.4459 0.78399 1.3127 0.78399 1.3127 2.4796 0 1.0028-0.69282 1.7868-0.67459 0.76576-1.8597 1.2216-1.1669 0.45581-2.6437 0.45581h-1.2033v4.2846l1.6409 0.72929v0.29171zm3.0995-11.03v4.7222h1.5497q1.4403 0 2.2608-0.63813 0.82045-0.65636 0.82045-1.6774 0-1.2763-0.83868-1.8414-0.82045-0.5652-2.3702-0.5652z"/>
    <path d="m70.207 177.36q-1.495 0-2.6801-0.67459-1.1669-0.69282-1.8415-1.8779-0.67459-1.2033-0.67459-2.7348 0-1.5315 0.67459-2.7348t1.8415-1.8779q1.1851-0.69283 2.6801-0.69283 1.5133 0 2.6801 0.69283 1.1851 0.67459 1.8597 1.8779 0.69282 1.2033 0.69282 2.7348 0 1.5315-0.69282 2.7348-0.67459 1.1851-1.8597 1.8779-1.1669 0.67459-2.6801 0.67459zm0.30995-0.91161q1.568 0 2.4614-1.0757t0.89338-2.8442q0-1.4404-0.49227-2.5343-0.49227-1.0939-1.3857-1.6956-0.87515-0.6199-2.0238-0.6199-1.568 0-2.4796 1.0575t-0.91161 2.826q0 1.4586 0.49227 2.5708 0.5105 1.0939 1.3857 1.7138 0.89338 0.60166 2.0602 0.60166z"/>
    <path d="m77.901 177.18v-0.29171l1.2945-0.60167v-8.4233l-1.2945-0.60167v-0.29171h4.321v0.29171l-1.4768 0.60167v8.4051h3.9564l1.0757-2.589h0.29172v3.5006z"/>
    <path d="m88.439 177.18v-0.29171l1.2033-0.60167v-8.4233l-1.2033-0.60167v-0.29171h3.9929v0.29171l-1.2398 0.60167v8.4233l1.2398 0.60167v0.29171z"/>
    <path d="m100.18 177.36q-1.495 0-2.6801-0.67459-1.1669-0.69282-1.8415-1.8779-0.67459-1.2033-0.67459-2.7348 0-1.5315 0.67459-2.7348t1.8415-1.8779q1.1851-0.69283 2.6801-0.69283 1.5133 0 2.6801 0.69283 1.1851 0.67459 1.8597 1.8779 0.69282 1.2033 0.69282 2.7348 0 1.5315-0.69282 2.7348-0.67459 1.1851-1.8597 1.8779-1.1669 0.67459-2.6801 0.67459zm0.30995-0.91161q1.568 0 2.4614-1.0757t0.89338-2.8442q0-1.4404-0.49227-2.5343-0.49227-1.0939-1.3856-1.6956-0.87515-0.6199-2.0238-0.6199-1.568 0-2.4796 1.0575t-0.91161 2.826q0 1.4586 0.49227 2.5708 0.5105 1.0939 1.3857 1.7138 0.89338 0.60166 2.0602 0.60166z"/>
    <path d="m107.87 177.18v-0.29171l1.3127-0.60167v-8.4233l-1.3127-0.60167v-0.29171h4.0476q1.6956 0 2.6619 0.69282 0.98454 0.69283 0.98454 1.8962 0 0.89338-0.5652 1.5315-0.54697 0.63813-1.5315 1.0028l2.826 4.2481 1.2033 0.54697v0.29171h-2.589l-2.9536-4.6492h-1.2398v3.7376l1.2033 0.6199v0.29171zm3.7923-9.2984h-0.94808v3.7376h1.0392q0.98454 0 1.568-0.49227 0.60167-0.51051 0.60167-1.3856 0-0.92985-0.60167-1.3856-0.58343-0.47404-1.6591-0.47404z"/>
    <path d="m118.01 177.18v-0.29171l0.92985-0.47404 4.0476-9.5355h0.76575l4.0293 9.5172 1.0575 0.49227v0.29171h-3.9746v-0.29171l1.2762-0.51051-1.1486-2.7713h-3.7923l-1.1486 2.8078 1.3492 0.47404v0.29171zm3.5735-4.4851h3.0266l-1.5315-3.6829z"/>
    <path d="m130.54 177.18v-0.29171l1.2945-0.60167 0.34642-8.4233-1.4039-0.60167v-0.29171h3.2636l3.4641 7.7305 3.61-7.7305h3.0995v0.29171l-1.3492 0.51051 0.25525 8.5144 1.1669 0.60167v0.29171h-3.9564v-0.29171l1.2033-0.58344-0.16409-7.6211-3.9929 8.5692h-0.47404l-3.8105-8.5692-0.18232 7.6211 1.331 0.58344v0.29171z"/>
    <path d="m145.98 177.18v-0.29171l0.92984-0.47404 4.0476-9.5355h0.76575l4.0293 9.5172 1.0575 0.49227v0.29171h-3.9746v-0.29171l1.2763-0.51051-1.1486-2.7713h-3.7923l-1.1486 2.8078 1.3492 0.47404v0.29171zm3.5735-4.4851h3.0266l-1.5315-3.6829z"/>
   </g>
  </g>
  <path id="elephant" d="m110.82 111.23-6.5996 2.9941-10.02 1.5823-6.996-1.2795-6.012 2.8339-8.9276 12.379-0.94723 10.879 0.46303 6.5428-1.8459 4.5527-0.99632 4.84-1.8298 3.1171 0.15606 2.3399 3.4261 1.8614 3.2773-1.326-0.50798-2.6097 1.8924-4.8963 2.0882-5.3475 1.941-1.2299 0.4532 4.0773-0.82424 10.57 4.9573 1.3787 4.7382-0.36328-0.10956-3.6112-2.82-3.9941 0.41186-7.8967 3.0877-3.916 2.4164-0.27699 8.1737-2.9688 0.99839 1.7265-1.5844 16.857-1.6423 2.6562 0.48421 1.9394 7.4414 0.8475 2.6055-1.6619-1.2108-3.2463-2.2148-0.91209 5.0917-14.113 3.9336 4.1832 4.2189 8.9943-0.49455 4.8927 4.0804 1.1503 4.992-0.7209 0.0568-3.0856-3.1171-3.4944v-3.5528l-3.082-8.2031-2.7151-11.838 3.0468 1.7539 2.6975-1.6288-0.61133-3.5011 3.4551 1.2041 1.9606 2.2056 1.4433-0.77359 1.8262 0.73639 1.2501 5.2927-1.6759 4.5372-1.3007-0.0134-0.67541-0.72864 0.75551-1.8712-2.6954-0.57051-1.5699 2.6898 2.4081 4.8142 4.9279-0.1757 4.9217-6.1542 0.90227-5.7051 1.635 0.3049 2.6386-1.6273-2.036-0.46198 1.6748-0.97152-3.8711-0.98237-0.89297-3.6535 0.0155-9e-3 -0.0305-0.0537-0.0398-0.16278-6.4823-11.44-5.072-3.8514-12.629-0.33228zm0.0853 0.94309 1.7782 0.94568-3.3507 1.9575zm-0.31832 0.0336-1.6934 3.1259-0.0894 0.0522-3.9341-0.58447zm3.5755 1.3524 2.8065 0.0734 1.9327 0.10128v-5.1e-4l6.1898 0.32401-0.30128 0.23564-2.1244-0.1111-4.6509-0.2434-2.5306-0.13229v5.2e-4l-1.1198-0.0584zm-0.73019 0.0408 5.5051 5.1522-6.1604 1.8707-1.5513-5.734zm11.85 0.25063 0.0708 2e-3 -0.0832 0.0651zm0.93069 0.15245 4.4452 3.3771-1.557 4.6276-0.23409-0.0258-1.2795-0.46044zm-11.55 0.0248 4.1444 0.21704v-5e-4l5.6658 0.29657-0.30128 0.23513-1.6004-0.0837-4.4338-0.23203-2.5306-0.13229v5.3e-4l-0.65991-0.0346zm11.287 0.0289 1.2883 7.9096-5.686 1.6449-0.0801 0.0212v2e-3h-2e-3l0.0284 0.10284-0.25993-0.15038-1.5343-4.6462zm-10.703 0.5178 3.0055 0.15658v5e-4l4.271 0.22273 1.3317 0.0698-0.30076 0.23565-1.0764-0.0563-4.1171-0.21549-2.5301-0.13229v5.3e-4l-0.29972-0.0155zm-10.957 0.4408-0.58032 3.3357-8.7974-1.8557zm0.2682 4e-3 3.8814 0.57877-4.4344 2.59zm6.4296 8e-3 1.5674 5.7857-7.7153-2.1947zm4.8416 0.0925 0.11575 6e-3 6.4849 0.33899 0.8077 0.0424-0.30127 0.23564-0.55191-0.0289v-5.3e-4l-3.8106-0.19896-2.4598-0.12816zm-28.518 0.23357 0.0646 0.0119 3.4675 5.3599-8.5623-3.0019zm0.41961 0.0765 6.0834 1.1105-2.7352 4.0628zm28.681 0.23617 2.2862 0.11937 3.637 0.19017 0.28422 0.015-0.30231 0.23617-0.0274-2e-3 -3.483-0.18242-2.11-0.11007zm0.58446 0.54725 1.4345 0.0749 0.49041 0.0258 3.0789 0.16071-0.30076 0.23513-2.4996-0.13126 5.3e-4 5.3e-4 -1.9208-0.10077zm-22.901 0.3793 9.5581 2.018 0.74414 6.8673-13.172-4.6183zm23.484 0.16692 0.75758 0.0393 1.1581 0.0605 5.3e-4 5.3e-4 1.8857 0.0987-0.30024 0.23513-2.79-0.1457-0.42737-0.0222zm0.58292 0.54571 0.0806 4e-3 1.8278 0.0956 0.69349 0.0362-0.30179 0.23616-2.0154-0.10542zm12.694 0.30851 5.703 10.063-6.9944-5.3986-0.0611-0.0452-0.0433-0.0359-0.11627-0.0894zm-12.11 0.23875 1.3984 0.0729-0.29972 0.23461-0.81546-0.0429zm-36.761 0.0465 1.0294 0.36071-0.21755 0.66455zm-0.26665 0.0889 9.2315 11.66-17.576-0.0956 8.3406-11.563zm1.5467 0.35967 1.2681 0.44493-0.53951 1.6438-0.99942-1.2625zm36.063 0.0501 0.19895 0.0103-0.10232 0.0801zm-14.806 0.40514 15.314 4.3568-11.469 0.76017-3.8654-4.8095-0.03-0.27854zm14.531 0.0599 0.0982 0.092 1.3606 4.1228-7.6982-2.19 6.2751-1.9053zm-34.271 0.0171 1.2687 0.44494-0.8599 2.6246-1.001-1.264zm1.5188 0.53227 1.2697 0.44545-1.1818 3.605-1.001-1.2645zm18.254 0.18552 8.6754 10.793-8.0047-4.609zm-16.734 0.34726 1.2687 0.44494-1.5028 4.5847-0.99994-1.263zm1.5188 0.53279 1.2702 0.44493-1.8242 5.5666-1.0015-1.2656zm1.5183 0.53227 1.2702 0.44544-2.1456 6.5453-1.0005-1.2635zm1.5198 0.53278 1.2687 0.44442-2.4665 7.5262-0.99994-1.2635zm1.5188 0.53227 1.2702 0.44545-2.1797 6.6513-1.5534 0.41755zm33.366 0.25734-0.0796 4.6953-5.4963-3.1802zm2.0185 0.0589 7.6145 5.8792 0.15709 0.27751-9.6118-1.0382 0.0811-4.9377 0.30954-0.047 0.39842 0.28525zm-33.865 0.21652 1.2687 0.44493-1.8423 5.6198-1.5508 0.41703zm1.5183 0.53227 1.2681 0.44493-1.5022 4.5878-1.5524 0.41754zm23.541 0.24391-6.3898 7.4988-0.22841-0.13126-5.2865-6.5784zm0.19844 0.18293 0.10646 0.3235 0.18965 0.56637 6e-3 -2e-3 1.5994 9.1545-1.8324 1.1074-3.2773-1.8867-0.0465-0.20309-0.13901 0.0956-2.8572-1.6454zm-22.221 0.10594 1.2702 0.44493-1.1658 3.5559-1.5518 0.41755zm1.5198 0.53279 1.2681 0.44441-0.82682 2.5244-1.5508 0.41703zm1.5188 0.53226 1.2697 0.44545-0.48886 1.4914-1.5529 0.41754zm20.408 0.14883 0.25321 0.14625-0.24598 0.1359-0.046-0.26096zm0.51986 0.30024 0.25322 0.14676-0.67231 0.37155-0.046-0.26148zm-19.409 0.0837 1.2686 0.44493-0.15089 0.45992-1.5513 0.41755zm19.929 0.21755 0.25322 0.14677-1.0992 0.60616-0.0455-0.26148zm0.52039 0.30128 0.25373 0.14676-1.5265 0.84181-0.0455-0.26097zm-19.005 0.23926 6e-3 0.0574-0.0274 7e-3zm19.525 0.0615 0.25425 0.14728-1.9534 1.0775-0.0455-0.26149zm-19.395 0.2372 0.19947 0.11472-3.2778 16.28-1.2893-2.2298-0.0636 0.0232-8.6971-10.658zm19.917 0.0646 0.25322 0.14624-0.0904 0.0501-2.2898 1.263-0.0455-0.26097zm-19.475 0.18965 11.536 6.643-0.25631 0.17932-11.354-6.4528zm19.995 0.1111 0.25269 0.14625-1.7053 0.94102 2e-3 5.3e-4 -1.1017 0.60772-0.046-0.26097zm0.5209 0.30128 0.25321 0.14624-3.2334 1.7849-0.0455-0.26201zm-20.645 0.22944 11.169 6.3484-0.46664 0.32608-10.81-6.1423zm21.165 0.0713 0.25477 0.14728-3.6613 2.0195-0.0455-0.262zm0.52142 0.30179 0.046 0.0264 4e-3 0.23254-3.7941 2.0924-0.0418-0.0145-0.016 0.0465-0.0315 0.0176-0.0455-0.25993zm0.84129 0.1788 9.5855 1.0351-2.9569 1.664-3.8985 0.84595 6e-3 0.0295-2.6996-1.3286zm-22.69 0.25425 10.624 6.0368-0.46768 0.3266-10.263-5.8332zm21.903 0.12506 5e-3 0.28319-3.1492 1.7379-0.31781-0.11058zm9e-3 0.58188 5e-3 0.28421-2.5048 1.3824-0.31936-0.1111zm-22.075 0.0966 10.078 5.7283-0.46716 0.3266-9.7183-5.5232zm32.63 0.17208 0.8785 3.6008-1.233-0.28474-0.0434-0.0382-0.01 0.0119-2.4195-1.7002zm-10.546 0.3142 5e-3 0.28318-1.8614 1.0278-0.31781-0.11059zm-22.246 0.31884 9.5333 5.4178-0.46767 0.32659-9.1726-5.2136zm-31.229 0.17725 17.814 0.0971-8.5618 14.783-0.19792 0.0227-0.0729 0.0982-3.1269-5.0736 3e-3 -0.0129-0.0124-3e-3 -5.9872-9.7141zm53.484 0.0868 5e-3 0.28525-1.216 0.67076-0.31988-0.1111zm-35.423 0.11058 8.6481 10.597-0.9555 0.34726 0.0279-0.0109-7.9391-10.556zm13.005 0.42943 8.9876 5.1087-0.46664 0.32609-8.6279-4.9036zm-31.254 2e-3 0.48524 0.78703-0.61288 9.0175-0.73123 0.0749zm53.681 0.0424 5.3e-4 0.0326 0.24237 0.11938-0.76378 0.42116-0.0465 0.0258-0.31729-0.11059zm-35.795 0.15296 7.8238 10.401-0.76688 0.27854-7.4817-9.9467zm43.234 0.093 2.5993 1.8262-5.3e-4 2e-3 4e-3 1e-3 0.01 7e-3 2e-3 2e-3 0.0119 8e-3 7e-3 -9e-3 1.4035 0.32505 3e-3 0.0124 2.449 0.62063-1.3963 0.8108-5.3066-0.81648-3.4236-2.0014zm-6.9066 0.0481 0.2744 0.13487-0.79633 0.43925-0.0879-0.0992-0.154-0.0537zm0.56379 0.27698 0.2744 0.13539-1.0087 0.55656-0.17105-0.19224zm-23.684 0.18914 8.4424 4.7982-0.46768 0.32711-8.0817-4.594zm24.249 0.0884 0.27441 0.1354-1.2222 0.67385-0.17053-0.19171zm0.56328 0.27751 0.2744 0.13487-1.4345 0.79168-0.17053-0.19172 1.2433-0.68626v-5.3e-4zm-55.18 7e-3 0.7059 1.1452-0.50074 7.3758-0.78807 0.0811zm16.593 3e-3 7.3649 9.7927-0.76791 0.27905-7.0228-9.3364zm39.151 0.26768 0.27492 0.13539-1.648 0.90848-0.17053-0.19172 1.0831-0.59739-5.3e-4 -5e-4zm-25.537 0.16175 7.8972 4.4881-0.46663 0.32659-7.5375-4.2829zm26.095 0.11885 0.2527 0.1478-0.51005 0.28112-0.0977-0.0393-1.2909 0.69349-0.10387-0.11679 0.894-0.49351v-5e-4zm0.5178 0.30283 0.25218 0.14779-0.41083 0.22635-0.30024-0.12093zm-40.795 0.13177 6.9076 9.1829-0.76998 0.27957-6.5639-8.7261zm41.312 0.17105 0.25218 0.14728-0.31212 0.17208-0.30024-0.12092zm-27.291 0.0801 7.3381 4.1708 0.2067-0.12713-0.29972 0.20929-5.3e-4 2e-3 -1.9218 1.1555-5.7542-3.2696 0.10698-0.53176 6.1495 3.4949 0.25683-0.15865-6.351-3.6091 0.10697-0.53175 6.7438 3.8328 0.25684-0.15864-6.9453-3.9476zm27.81 0.22324 0.2527 0.14728-0.21342 0.11731-0.30024-0.12093zm-56.91 0.0713 0.70642 1.1462-0.38913 5.7356-0.79013 0.0811zm57.427 0.23099 0.25269 0.14779-0.31729 0.17467-0.0506-0.21394-0.047-0.0191zm-42.918 0.20722 6.4482 8.5726-0.76688 0.27853-6.1066-8.1163zm43.436 0.0956 0.25219 0.14728-0.71159 0.39326-0.0599-0.25373zm-15.699 0.26665 1.4149 6.1686-6.6125-2.5172 5e-3 -0.0207zm16.217 0.0357 0.25218 0.1478-1.1059 0.61081-0.0599-0.25425zm0.4532 0.34158-0.032 0.30179-1.1519 0.63562-0.0599-0.25166zm0.4532 0.016 5.332 0.81959 0.9741-0.56482 1.3286 0.30075-1.3632 0.84181-1.9684-0.36483-0.94103 5.9495zm-0.20722 0.17932 3.343 6.9438-5.4436 2.0722 1.5601-4.2245 0.031 3e-3zm-45.222 0.0491 5.9888 7.9628-0.76739 0.27854-5.6467-7.5076zm-12.995 0.11111 0.70539 1.1446-0.27854 4.0959-0.78807 0.0806zm57.903 0.27078-0.0315 0.30024-0.96325 0.53072-0.0589-0.2496zm-30.235 0.31523 5.5485 3.1538-0.50643 0.30386-5.149-2.9264zm-15.243 0.28525 5.5304 7.3536-0.76894 0.27905-5.1873-6.8978zm45.412 0.0243-0.032 0.30076-0.7736 0.42684-0.0589-0.25063zm-30.331 0.49506 4.9439 2.8096-0.50643 0.30489-4.5444-2.5833zm30.264 0.12919-0.0315 0.30127-0.58447 0.32246-0.0589-0.25114zm-56.825 0.0134 0.70487 1.1436-0.16691 2.4551-0.78807 0.0811zm10.911 0.32143 5.0726 6.7433-0.76843 0.27905-4.7294-6.288zm45.848 0.28939-0.032 0.30076-0.25735 0.14211 5e-3 1e-3 -0.14211 0.0786-0.0599-0.25425zm-30.36 0.0506 4.3393 2.4665-0.50643 0.30437-3.9398-2.2391zm30.293 0.57516-0.032 0.30386-0.20464 0.11317-0.0599-0.25321zm-22.316 0.0129-1.5058 6.8905-1.4113 3.9109-0.9157-8.4966zm-24.036 0.0558 4.6132 6.133-1e-3 5.3e-4 -0.89813 0.10283-4.1393-5.502zm15.896 0.16175 3.7347 2.1224-0.50643 0.30437-3.3352-1.896zm-25.294 0.0636 0.70642 1.1462-0.0548 0.81391-0.78962 0.0806zm34.158 0.11524 6.7402 2.5657 0.0103 0.046-8.2693 4.2452 0.0506-0.14212zm21.526 0.21549-0.0326 0.30437-0.015 8e-3 -0.0599-0.25321zm-30.552 0.4098 3.1306 1.7792-0.50643 0.30437-2.7306-1.5524zm-16.303 0.0165 3.978 5.2891-0.90072 0.10336-3.5026-4.6576zm-7.8843 0.77515 0.23048 0.37414-0.25735 0.0264zm24.025 0.0124 2.526 1.4356-0.50592 0.30437-2.127-1.2087zm-16.711 0.19637 3.3419 4.4431-0.90124 0.10335-2.8665-3.8116zm-7.0259 0.42633-1.9337 9.2449-3e-3 2e-3 -0.10542 0.27079-4.147-2.7368-0.43098-6.0715 3e-3 -0.0315zm28.119 6e-3 0.94672 8.7891-6.0766-5.7046zm-4.5444 0.17673 1.9208 1.0919-0.50539 0.30386-1.5224-0.86506zm-23.346 0.0217 3.0365 4.9263-1.1503 1.5518-3.7378 2.3663zm6.2286 0.35244 2.7068 3.5987-0.90072 0.10284-2.2319-2.9668zm33.28 0.27027 1.1452 4.993-9.0289-0.94774zm-16.324 0.15967 1.3167 0.74828-0.5059 0.30437-0.91778-0.52141zm25.349 0.22893 1.6614 0.35347-0.64647 1.5958 1.0583 1.1405 1.5079 0.0155-2.7461 3.1559zm-0.22634 0.30024 0.71055 5.3284-1.7622-3.5248zm-42.648 0.0238 2.0702 2.7538-0.90072 0.10335-1.5958-2.1213zm17.363 0.25167 0.7121 0.40462-0.5054 0.30438-0.31316-0.17829zm34.841 0.45682-0.32401 0.40514-0.29662-0.16898zm-52.774 0.27543 1.4351 1.9079-0.90072 0.10336-0.96015-1.2759zm17.771 0.0718 0.108 0.0615-0.13694 0.0822zm34.061 0.0114 0.4501 0.2558-0.32505 0.40669-0.74827-0.4253zm-0.94413 0.35967 0.90123 0.51211-0.32556 0.40721-1.1994-0.68161zm-0.94465 0.35967 1.3529 0.76946-0.32556 0.40669-1.6511-0.93844zm-50.514 0.18138 0.79943 1.0625-0.89917 0.10283-0.32504-0.43149zm18.345 0.0403 0.20929 0.19689-0.0935 0.37207-0.57361 2.281 0.15451-1.6443 0.18345-0.72967zm31.225 0.13797 1.804 1.0258-0.32556 0.40721-2.1027-1.1953zm-30.795 0.26614 0.20929 0.19637-0.0403 0.15968-1.0836 4.3057-0.20826 0.82889-0.0517 3e-3 0.12402-1.3162 0.0537-0.21497h-5.3e-4l0.93119-3.7zm29.85 0.0941 2.2562 1.2826-0.32557 0.40669-2.5528-1.4506 1e-3 -2e-3zm-29.42 0.30902 0.20929 0.19637-0.99219 3.945-0.23048 0.91571-0.26251 0.015 0.21962-0.87385h5.3e-4l1.0428-4.1476zm28.604 0.12403 2.5797 1.4655-0.32556 0.40669-2.5988-1.4764zm-48.377 0.0114 0.1633 0.21755-0.31006 0.0357zm20.202 0.26716 0.20929 0.19689-0.86351 3.4344-0.24908 0.99218-0.26355 0.015 0.24184-0.96016zm-14.946 0.16382-0.12868 0.16278-0.0124-0.14676zm-0.40463 0.0465 0.0357 0.42168-0.71262 0.9033-0.10439-1.2356zm43.005 0.11058 2.6081 1.4821-0.32556 0.40773-2.6278-1.4934zm-44.05 9e-3 0.12765 1.51-0.71366 0.90485-0.19688-2.3249zm23.718 0.0336 9.2506 0.97256 0.0253 0.0667-5.224 3.3285-0.0537-0.11524zm-6.8916 0.0403 0.2098 0.19689-0.7307 2.9032-0.27389 1.0883-0.26303 0.015 0.26355-1.0464zm-17.873 0.046 0.21962 2.6004-0.48059 0.60875-0.0145 0.27699-0.2067 0.15244-0.30025-3.5486zm-1.0464 0.11988 0.31264 3.7031-0.74156 0.5457-0.35139-4.1589zm-1.0459 0.12041 0.36483 4.314-0.74259 0.54622-0.40359-4.7708zm20.395 0.11731 0.20929 0.19637-0.55863 2.2174h1e-3l-0.33744 1.3405-0.26201 0.015 0.16537-0.6568 0.11989-0.47646zm26.271 0.11317 2.6376 1.4991-0.19326 0.24133-0.39791 0.0145-2.3911-1.3591zm-47.698 0.0424 0.40308 4.7718-0.74363 0.54674-0.36897-4.3615zm21.857 0.24805 0.20877 0.19637-0.34003 1.3544-0.36277 1.4418-0.0822 0.32711-0.26304 0.015 0.10956-0.43563 0.28319-1.1245 5.3e-4 -5.3e-4zm25.319 0.30902 2.0645 1.1736-0.98133 0.0351-1.4283-0.81184zm-24.89 0.0941 0.20774 0.19533-0.4749 1.8883-0.20206 0.80253-0.26045 0.0145 0.0537-0.21342 0.44649-1.7751zm14.973 0.0408 2.9089 7.7406v1.3322l-3.0742-8.9675zm-0.39585 0.25218 3.3047 9.6387v0.79065l-0.80357-0.72242-3.1797-9.2744zm-14.15 0.10852 0.20981 0.19689-0.36846 1.465-0.19895 0.79169-0.25993 0.015 0.55242-2.1978-2e-3 -3e-3zm23.94 0.1049 1.1017 0.62632-0.97875 0.0351-0.46715-0.26562zm-47.603 0.12196 0.35708 4.224-0.74155 0.54519-0.3514-4.1584 0.53433-0.339zm-8.9679 0.154 3.9626 2.6164-1.6929 4.3398zm33.061 0.0232 0.2098 0.19637-0.23771 0.94413-0.22117 0.87798-0.262 0.015 0.10077-0.39998 2e-3 -2e-3 0.2651-1.0542-1e-3 -2e-3zm12.813 0.0651 3.006 8.7679-1.1973-1.0764-2.4882-7.2585zm10.176 0.23513 0.14056 0.0801-0.21705 8e-3zm-22.559 0.10283 0.20928 0.19689-0.10955 0.43357-0.23978 0.95445-0.26251 0.015 0.23202-0.92294zm-33.624 0.0171 2.2236 6.8104-3.7755-2.9874zm8.1101 0.17519 0.35347 4.1832-0.37104 0.27285-0.45992-4.1532zm36.988 0.0486 2.3141 6.7505-1.1927-1.0723-1.7994-5.2462zm-11.045 0.16225 0.21032 0.19742-0.23978 0.95342-0.26355 0.015 0.25373-1.0092zm0.43046 0.40463 0.20878 0.19585-0.13074 0.51935-0.262 0.015 0.15606-0.61908zm9.7069 0.0119 1.6221 4.7336-1.1922-1.0718-1.1079-3.2298zm-9.277 0.3912 0.20929 0.19688-0.0212 0.0847-0.26252 0.015zm8.3695 0.18706 0.93224 2.7197-1.1942-1.0738-0.416-1.2139zm-30.401 0.0563-0.37155 7.1536-4.3837-3.469 8e-3 -0.10697-9e-3 -0.0801zm22.152 0.30644-0.01 0.0398 0.12661-4e-3 -3.6696 10.171-2.9238-9.8087 3e-3 -0.0279 4.8943-0.28008 0.23667-8e-3 2e-3 -6e-3 0.26355-0.015-3e-3 0.0124 0.2744-9e-3 5e-3 -0.0196 0.26252-0.015-7e-3 0.0264 0.27544-9e-3 8e-3 -0.0331zm7.3417 0.21498 0.24184 0.70538-0.4563-0.41031-0.0568-0.12196zm0.0744 0.91105 7.7685 6.9825v0.41445l0.092 0.10283-4.4493 5.0839 0.44131-4.3687zm-14.011 0.52504 2.6717 9.1638-0.4377 0.33641-2.3647-8.1096zm-30.095 0.68367 3.8272 3.0282-0.0527 0.13436-0.14986 0.38809-5.4426 2.8381 0.66662-1.1364 1.0077-4.8984zm9.757 1.3632 4.392 3.4732-0.017 0.3266 0.0827 0.1173-5.1764 5.2979zm20.14 0.0599 2.2066 7.5665-0.43821 0.33694-1.8991-6.5123zm-0.19792 2.1048 1.741 5.9717-0.43822 0.33693-1.4335-4.9175zm-26.219 0.39636-0.13436 0.34779-5.3408 2.7854-0.14986-0.1111 0.0749-0.12712zm-0.27802 0.71934-0.13746 0.35657-4.5992 2.3973-0.22479-0.16589zm-0.28112 0.72812-0.13695 0.35502-3.8576 2.0118-0.22531-0.16692zm11.449 0.12816 2.6019 3.6881 0.0692 2.2593-4.3708-4.208zm15.131 0.1359 1.2754 4.3739-0.43821 0.33693-0.96791-3.3202zm-26.861 0.46354-0.13695 0.35554-3.1156 1.6242-0.22479-0.1664zm49.503 0.39119 0.13487 0.15142-4.2189 4.9666-0.31575-0.0889zm-49.785 0.33693-0.13695 0.35502-2.3735 1.2371-0.2253-0.1664zm50.097 0.0134 0.16898 0.18913-4.0204 4.732-0.26614-0.0749zm-54.735 0.33435 4.4695 3.3047-2.2908 0.92707-2.713-1.4728-0.10903-1.6619zm55.081 0.0543 0.16795 0.18862-3.8215 4.4979-0.2651-0.0749zm-40.317 0.19947 4.5465 4.376-3.8251 0.29352-4.1553-1.1555zm-10.407 0.12505-0.13694 0.35502-1.6325 0.85111-0.22479-0.1664zm51.07 0.0636 0.16846 0.18913-3.622 4.2628-0.2651-0.0744zm-23.845 0.1235 0.80976 2.7786-0.43769 0.33641-0.5731-1.9658 0.10956-0.17674zm24.19 0.26407 0.16847 0.18914-3.422 4.0292-0.26665-0.0749zm-51.692 0.2744 0.0501 0.25787-1.0816 0.56327-0.22531-0.16588zm52.038 0.11369 0.16898 0.18965-3.2236 3.7941-0.26613-0.0749zm-20.788 0.20154 1.2707 4.4617-6.1593-0.70383zm0.30799 0.1173 2.1384 0.88057 0.86507 2.3203-1.7699 1.1307zm20.827 0.0698 0.16846 0.18913-2.8009 3.2959-0.37362 0.0538zm-52.282 0.0253 0.0501 0.25786-0.72348 0.37672-0.22479-0.16639zm52.628 0.36277 0.16846 0.18912-2.3761 2.7967-0.37465 0.0543zm-25.617 0.0238 0.53485 1.8356-0.4377 0.33693-0.46147-1.5829zm-26.909 0.14107 0.0501 0.25787-0.36483 0.19017-0.22531-0.16692zm52.872 0.22325 0.10542 0.11834-3e-3 0.14831-1.8857 2.22-0.37621 0.0543zm-52.769 0.30385 0.0501 0.25787-7e-3 4e-3 -0.22479-0.1664zm26.255 0.2248 0.42323 1.4531-0.4377 0.33641-0.34985-1.1999zm26.61 0.15503-7e-3 0.39429-1.1023 1.2981-0.37414 0.0537zm-27.162 0.73742 0.31161 1.0702-0.23047 0.17724-0.24547-0.98185zm27.147 0.0749-0.0129 0.72399-0.68626 0.0987z" color="#000000" color-rendering="auto" dominant-baseline="auto" image-rendering="auto" shape-rendering="auto" solid-color="#000000" style="font-feature-settings:normal;font-variant-alternates:normal;font-variant-caps:normal;font-variant-ligatures:normal;font-variant-numeric:normal;font-variant-position:normal;isolation:auto;mix-blend-mode:normal;shape-padding:0;text-decoration-color:#000000;text-decoration-line:none;text-decoration-style:solid;text-indent:0;text-orientation:mixed;text-transform:none;white-space:normal"/>
 </g>
</svg>
