<svg width="0" height="0" class="hidden">
  <symbol 
    width="1em" 
    height="1em"
    fill="currentColor" 
    aria-hidden="true" 
    xmlns="http://www.w3.org/2000/svg" 
    viewBox="0 0 1024 1024" 
    data-prefix="poliorama" 
    data-icon="edge" 
    id="edge"
    focusable="false"
  >
    <path d="M 190.5 33.833984 C 104.77 33.833984 34.5 104.10397 34.5 189.83398 C 34.5 275.56399 104.77 345.83398 190.5 345.83398 C 220.6372 345.83398 248.85787 337.14079 272.79297 322.1543 L 356.84375 402.55273 L 406.61133 350.52148 L 323.50781 271.03125 C 338.07541 247.33314 346.5 219.51093 346.5 189.83398 C 346.5 104.10397 276.23 33.833984 190.5 33.833984 z M 190.5 105.83398 C 237.3183 105.83398 274.5 143.01565 274.5 189.83398 C 274.5 236.65231 237.3183 273.83398 190.5 273.83398 C 143.6817 273.83398 106.5 236.65231 106.5 189.83398 C 106.5 143.01565 143.6817 105.83398 190.5 105.83398 z M 458.64062 400.28906 L 408.87305 452.32031 L 564.96484 601.62305 L 614.73242 549.59375 L 458.64062 400.28906 z M 666.76172 599.36133 L 616.99414 651.39258 L 714 744.18164 C 694.2522 770.31844 682.5 802.782 682.5 837.83398 C 682.5 923.56399 752.76997 993.83398 838.5 993.83398 C 924.23 993.83398 994.5 923.56399 994.5 837.83398 C 994.5 752.10397 924.23 681.83398 838.5 681.83398 C 813.89137 681.83398 790.56343 687.63434 769.79883 697.91797 L 666.76172 599.36133 z M 838.5 753.83398 C 885.3183 753.83398 922.5 791.01565 922.5 837.83398 C 922.5 884.65231 885.3183 921.83398 838.5 921.83398 C 791.68167 921.83398 754.5 884.65231 754.5 837.83398 C 754.5 791.01565 791.68167 753.83398 838.5 753.83398 z"/>
  </symbol>
</svg>