<svg width="0" height="0" class="hidden">
  <defs>
    <symbol aria-hidden="true" xmlns="http://www.w3.org/2000/svg" viewBox="0 0 1024 1024" data-prefix="poliorama" data-icon="edge" id="edge">
      <path d="M 168 32 C 93.315681 32 32 93.315681 32 168 C 32 242.68432 93.315681 304 168 304 C 192.36842 304 215.3116 297.4682 235.16797 286.07812 L 240 290.91211 L 290.91211 240 L 286.07812 235.16797 C 297.4682 215.3116 304 192.36842 304 168 C 304 93.315681 242.68432 32 168 32 z M 168 104 C 203.77263 104 232 132.22737 232 168 C 232 203.77263 203.77263 232 168 232 C 132.22737 232 104 203.77263 104 168 C 104 132.22737 132.22737 104 168 104 z M 316.36719 265.45508 L 265.45508 316.36719 L 290.91211 341.82422 L 341.82422 290.91211 L 316.36719 265.45508 z M 367.2793 316.36719 L 316.36719 367.2793 L 341.82422 392.73438 L 392.73438 341.82422 L 367.2793 316.36719 z M 418.19141 367.2793 L 367.2793 418.19141 L 392.73438 443.64648 L 443.64648 392.73438 L 418.19141 367.2793 z M 469.10352 418.19141 L 418.19141 469.10352 L 443.64648 494.55859 L 494.55859 443.64648 L 469.10352 418.19141 z M 520.01367 469.10352 L 469.10352 520.01367 L 494.55859 545.4707 L 545.4707 494.55859 L 520.01367 469.10352 z M 570.92578 520.01367 L 520.01367 570.92578 L 545.4707 596.38086 L 596.38086 545.4707 L 570.92578 520.01367 z M 621.83789 570.92578 L 570.92578 621.83789 L 596.38086 647.29297 L 647.29297 596.38086 L 621.83789 570.92578 z M 672.75 621.83789 L 621.83789 672.75 L 647.29297 698.20508 L 698.20508 647.29297 L 672.75 621.83789 z M 723.66016 672.75 L 672.75 723.66016 L 681.64453 732.55469 L 698.20508 749.11719 L 749.11719 698.20508 L 732.55469 681.64453 L 723.66016 672.75 z M 856 720 C 831.63219 720 808.69001 726.53232 788.83398 737.92188 L 774.57227 723.66016 L 723.66016 774.57227 L 737.92188 788.83398 C 726.53232 808.69001 720 831.63219 720 856 C 720 930.68432 781.31568 992 856 992 C 930.68432 992 992 930.68432 992 856 C 992 781.31568 930.68432 720 856 720 z M 856 792 C 891.77263 792 920 820.22737 920 856 C 920 891.77263 891.77263 920 856 920 C 820.22737 920 792 891.77263 792 856 C 792 820.22737 820.22737 792 856 792 z"/>
   </symbol>
  </defs>
</svg>